<?xml version="1.0" encoding="UTF-8"?>
<svg id="Layer_1" data-name="Layer 1" xmlns="http://www.w3.org/2000/svg" viewBox="0 0 505.77 170.28">
  <defs>
    <style>
      .cls-1 {
        fill: none;
      }

      .cls-2 {
        fill: #0080aa;
      }

      .cls-3 {
        fill: #a2c037;
      }

      .cls-4 {
        fill: #00406f;
      }
    </style>
  </defs>
  <path class="cls-4" d="M475.46,126.39h-1.19c0-33.01-26.76-59.77-59.77-59.77s-59.77,26.76-59.77,59.77h-1.19c0-33.66,27.29-60.95,60.95-60.95s60.95,27.29,60.95,60.95h.02,0Z"/>
  <path class="cls-4" d="M401.72,132.61c-.49-.63-.97-1.27-1.43-1.91-.37-.51-.72-1.02-1.08-1.54-18.81-27.92-11.43-65.8,16.48-84.61,27.9-18.8,65.76-11.44,84.58,16.44,2.14,3.17,3.98,6.54,5.5,10.06l-1.09.47c-13.05-30.35-48.23-44.38-78.58-31.33-3.42,1.47-6.69,3.26-9.78,5.33-27.36,18.46-34.59,55.6-16.13,82.97h0c.35.51.7,1.02,1.05,1.51.45.63.93,1.26,1.41,1.88l-.93.73h0Z"/>
  <path class="cls-4" d="M413.42,102.61c-32.6.02-59.45-25.58-60.99-58.14l1.18-.05c1.55,32.97,29.53,58.45,62.5,56.9s58.45-29.53,56.9-62.5c-.66-14.17-6.35-27.64-16.03-38.01l.87-.81c23,24.61,21.69,63.21-2.93,86.21-5.2,4.86-11.22,8.77-17.77,11.56-7.5,3.19-15.58,4.84-23.73,4.85h0Z"/>
  <circle class="cls-4" cx="473.65" cy="41.72" r="10.02"/>
  <circle class="cls-4" cx="370.89" cy="84.5" r="10.02"/>
  <circle class="cls-4" cx="390.48" cy="97.71" r="10.02"/>
  <circle class="cls-4" cx="413.47" cy="102.02" r="10.02"/>
  <circle class="cls-4" cx="436.86" cy="97.71" r="10.02"/>
  <circle class="cls-4" cx="456.12" cy="84.5" r="10.02"/>
  <circle class="cls-4" cx="469.2" cy="64.72" r="10.02"/>
  <path class="cls-4" d="M41.65,36.26c.03-.23.04-.47.04-.7,0-.44-.37-.88-1.12-1.32-.94-.52-1.94-.92-2.98-1.2-1.4-.39-2.82-.7-4.26-.91-1.67-.25-3.36-.38-5.05-.37-1.75,0-3.5.21-5.21.58-1.76.36-3.45,1.01-5,1.9-1.5.87-2.77,2.07-3.72,3.52-1.93,3.3-1.93,7.38,0,10.67.95,1.45,2.22,2.65,3.72,3.52,1.56.9,3.25,1.54,5,1.9,1.71.37,3.46.57,5.21.58,1.14-.04,2.27-.17,3.39-.37,1.56-.25,3.11-.6,4.63-1.03,1.4-.39,2.77-.89,4.09-1.49,1.19-.55,1.78-1.13,1.78-1.74,0-.23-.05-.46-.16-.66-.12-.19-.23-.38-.33-.58l.91-.58,8.52,12.99-.99.58c-.07-.23-.24-.43-.45-.54-.22-.09-.46-.13-.7-.12-.8.12-1.58.35-2.32.7-1.48.57-2.98,1.07-4.51,1.49-2.14.59-4.31,1.06-6.49,1.41-2.76.43-5.56.64-8.35.62-3.32,0-6.63-.43-9.84-1.28-3.15-.8-6.12-2.18-8.77-4.05-2.58-1.83-4.72-4.2-6.29-6.95-3.2-6.09-3.2-13.36,0-19.44,1.56-2.75,3.71-5.12,6.29-6.95,2.66-1.88,5.63-3.3,8.77-4.18,3.2-.93,6.51-1.4,9.84-1.41,2.86-.03,5.72.15,8.56.54,2.05.29,4.08.69,6.08,1.2,1.6.44,2.84.81,3.72,1.12.64.25,1.3.4,1.98.45.5,0,.96-.25,1.24-.66l.91.25-7.45,13.65-.83-.58c.06-.18.1-.36.12-.54l.02-.02h0Z"/>
  <path class="cls-4" d="M105.8,54.29c.3-.58.47-1.21.5-1.86h.99v14.31h-.99c0-.58-.17-1.14-.5-1.61-.29-.21-.64-.32-.99-.29h-43.18v-.99c.69,0,1.36-.18,1.94-.54.25-.25.38-.6.37-.95V23.81c.01-.35-.12-.7-.37-.95-.59-.36-1.26-.54-1.94-.54v-.99h17.04v.99c-.69,0-1.36.18-1.94.54-.25.25-.38.6-.37.95v30.94h28.46c.39.03.76-.15.99-.46h0Z"/>
  <path class="cls-4" d="M128.94,63.64c.37.18.79.25,1.2.21v.99h-14.64v-.99c.48-.06.94-.24,1.32-.54.37-.39.65-.86.83-1.37.11-.28.39-1.02.83-2.23.44-1.21,1.02-2.74,1.74-4.59s1.52-3.9,2.4-6.16c.88-2.26,1.77-4.56,2.65-6.91.88-2.34,1.75-4.63,2.61-6.87.85-2.23,1.61-4.23,2.27-6l1.61-4.3c.41-1.1.62-1.68.62-1.74,0-.28-.18-.47-.54-.58-.37-.11-.74-.2-1.12-.25v-.99h21.59v.99c-.37.04-.73.12-1.08.25-.28.11-.41.39-.41.83.22.73.48,1.45.79,2.15.52,1.32,1.2,3.05,2.03,5.17s1.78,4.52,2.85,7.2c1.08,2.67,2.19,5.4,3.35,8.19,1.16,2.78,2.27,5.5,3.35,8.15s2.05,5.02,2.94,7.11c.28.71.65,1.38,1.12,1.98.31.33.75.51,1.2.5v.99h-16.3v-.99c1.05-.06,1.57-.39,1.57-.99-.12-.38-.25-.75-.41-1.12-.28-.69-.58-1.46-.91-2.32-.33-.85-.65-1.67-.95-2.44-.22-.51-.4-1.04-.54-1.57h-19.61c-.55,1.49-.99,2.7-1.32,3.64s-.59,1.68-.79,2.23c-.19.55-.33.95-.41,1.2-.07.17-.11.35-.12.54-.02.24.09.48.29.62h-.01ZM140.73,29.1l-7.36,19.69h15.39l-8.02-19.69h0Z"/>
  <path class="cls-4" d="M193.63,63.31c.59.35,1.26.54,1.94.54v.99h-17.04v-.99c.69,0,1.36-.18,1.94-.54.25-.25.38-.6.37-.95V23.81c0-.35-.12-.7-.37-.95-.59-.36-1.26-.54-1.94-.54v-.99h30.28c6.12,0,10.56,1.12,13.32,3.35,2.76,2.23,4.14,5.69,4.14,10.38,0,3.81-1.12,6.78-3.35,8.93-2.39,2.24-5.31,3.83-8.48,4.63l9.76,13.73c.48.88,1.39,1.45,2.4,1.49v.99h-17.21v-.99c1.21-.06,1.82-.55,1.82-1.49-.16-.42-.39-.81-.66-1.16-.44-.66-.99-1.46-1.65-2.4-.66-.94-1.39-1.94-2.19-3.02s-1.57-2.11-2.32-3.1-1.39-1.87-1.94-2.65c-.55-.77-.91-1.3-1.08-1.57h-8.11v13.9c0,.35.12.7.37.95h0ZM212.16,38.33c1.76-1.67,1.83-4.46.15-6.22l-.15-.15c-.91-.91-2.58-1.36-5-1.36h-13.9v9.1h13.9c2.43,0,4.09-.45,5-1.36h0Z"/>
  <path class="cls-4" d="M241.12,63.31c.25-.25.39-.6.37-.95V23.81c0-.36-.12-.7-.37-.95-.59-.36-1.26-.54-1.94-.54v-.99h17.04v.99c-.69,0-1.36.18-1.94.54-.25.25-.38.6-.37.95v38.55c-.01.35.12.7.37.95.59.35,1.26.54,1.94.54v.99h-17.04v-.99c.69,0,1.36-.18,1.94-.54h0Z"/>
  <path class="cls-4" d="M270.39,22.86c-.59-.36-1.26-.54-1.94-.54v-.99h19.94v.99c-.64,0-1.27.11-1.86.37-.27.14-.44.4-.45.7.29.54.65,1.04,1.08,1.49.72.88,1.65,1.99,2.81,3.31s2.47,2.8,3.93,4.43,2.94,3.25,4.43,4.88,2.92,3.17,4.3,4.63c1.38,1.46,2.56,2.72,3.56,3.76v-22.09c0-.94-.58-1.43-1.74-1.49v-.99h15.14v.99c-.69,0-1.36.18-1.94.54-.25.25-.38.6-.37.95v38.55c-.01.35.12.7.37.95.59.35,1.26.54,1.94.54v.99h-15.72v-.99c.52.05,1.05-.04,1.53-.25.23-.14.37-.39.37-.66-.02-.23-.11-.44-.25-.62-.33-.45-.69-.88-1.08-1.28-.55-.61-1.37-1.48-2.44-2.61-1.08-1.13-2.5-2.65-4.26-4.55-1.77-1.9-3.94-4.27-6.53-7.11s-5.71-6.3-9.35-10.38v25.97c-.01.35.12.7.37.95.59.35,1.26.54,1.94.54v.99h-15.72v-.99c.69,0,1.36-.18,1.94-.54.25-.25.38-.6.37-.95V23.8c.01-.35-.12-.7-.37-.95h0Z"/>
  <g>
    <rect class="cls-1" x="5.88" y="81.71" width="354" height="70"/>
    <path class="cls-3" d="M12.58,142.7v-56.72h19.4c3.94,0,7.5.42,10.66,1.26,3.16.84,5.66,2.29,7.48,4.35,1.83,2.06,2.74,4.89,2.74,8.48,0,2.84-.64,5.38-1.91,7.61-1.28,2.23-3.1,3.78-5.48,4.65v.35c3.19.7,5.68,2.07,7.48,4.13,1.8,2.06,2.7,4.92,2.7,8.57,0,4-.99,7.28-2.96,9.83-1.97,2.55-4.63,4.44-7.96,5.66-3.34,1.22-7.03,1.83-11.09,1.83H12.58ZM25.37,108.68h6c3.13,0,5.41-.61,6.83-1.83,1.42-1.22,2.13-2.84,2.13-4.87,0-2.2-.73-3.77-2.18-4.7-1.45-.93-3.68-1.39-6.7-1.39h-6.09v12.79ZM25.37,132.78h7.22c3.48,0,6.1-.62,7.87-1.87,1.77-1.25,2.65-3.18,2.65-5.79,0-2.44-.88-4.2-2.65-5.31-1.77-1.1-4.39-1.65-7.87-1.65h-7.22v14.62Z"/>
    <path class="cls-2" d="M62.26,125.21v-9.05h21.4v9.05h-21.4Z"/>
    <path class="cls-2" d="M112.11,143.74c-4.06,0-7.73-.9-11.01-2.7-3.28-1.8-5.86-4.38-7.74-7.74-1.89-3.36-2.83-7.42-2.83-12.18s1.04-8.82,3.13-12.18c2.09-3.36,4.84-5.94,8.26-7.74,3.42-1.8,7.1-2.7,11.05-2.7,2.67,0,5.06.42,7.18,1.26,2.12.84,3.93,1.96,5.44,3.35l-6,7.92c-.75-.64-1.61-1.16-2.57-1.57-.96-.4-2.04-.61-3.26-.61-2.03,0-3.8.49-5.31,1.48-1.51.99-2.7,2.41-3.57,4.26-.87,1.86-1.3,4.03-1.3,6.52s.44,4.67,1.3,6.53c.87,1.86,2.04,3.28,3.52,4.26,1.48.99,3.15,1.48,5,1.48,1.45,0,2.81-.26,4.09-.78,1.27-.52,2.46-1.19,3.57-2l5.05,7.83c-1.8,1.62-3.92,2.91-6.35,3.87-2.44.96-4.99,1.44-7.66,1.44Z"/>
    <path class="cls-2" d="M150.65,143.74c-4.12,0-7.83-.9-11.14-2.7-3.31-1.8-5.92-4.38-7.83-7.74-1.91-3.36-2.87-7.42-2.87-12.18s.97-8.73,2.91-12.09c1.94-3.36,4.48-5.96,7.61-7.79,3.13-1.83,6.41-2.74,9.83-2.74,4.12,0,7.54.91,10.27,2.74,2.73,1.83,4.76,4.31,6.09,7.44,1.33,3.13,2,6.64,2,10.53,0,1.1-.06,2.19-.17,3.26-.12,1.07-.23,1.93-.35,2.57h-28.28l-.17-8.87h18.01c0-2.26-.55-4.13-1.65-5.61-1.1-1.48-2.93-2.22-5.48-2.22-1.39,0-2.76.38-4.09,1.13-1.33.75-2.44,2.06-3.31,3.92-.87,1.86-1.28,4.44-1.22,7.74.06,3.25.65,5.8,1.78,7.66,1.13,1.86,2.57,3.18,4.31,3.96,1.74.78,3.57,1.17,5.48,1.17,1.68,0,3.29-.25,4.83-.74,1.54-.49,3.06-1.17,4.57-2.04l4.18,7.83c-2.15,1.51-4.58,2.68-7.31,3.52-2.73.84-5.39,1.26-8,1.26Z"/>
    <path class="cls-2" d="M176.4,142.7v-43.15h10.44l.87,5.48h.35c1.8-1.8,3.83-3.33,6.09-4.61,2.26-1.27,4.84-1.91,7.74-1.91,4.75,0,8.18,1.55,10.27,4.66s3.13,7.35,3.13,12.75v26.8h-12.79v-25.14c0-3.13-.42-5.28-1.26-6.44-.84-1.16-2.19-1.74-4.05-1.74-1.62,0-3.02.36-4.18,1.09-1.16.73-2.44,1.75-3.83,3.09v29.14h-12.79Z"/>
    <path class="cls-2" d="M242.78,143.65c-5.34,0-9.17-1.55-11.48-4.65-2.32-3.1-3.48-7.12-3.48-12.05v-17.4h-5.83v-9.48l6.61-.52,1.48-13.22h10.61v13.22h10.35v10h-10.35v17.23c0,2.44.51,4.19,1.52,5.26,1.01,1.07,2.36,1.61,4.05,1.61.7,0,1.39-.06,2.09-.17.7-.12,1.36-.29,2-.52l2.09,8.96c-1.1.46-2.48.87-4.13,1.22-1.65.35-3.49.52-5.52.52Z"/>
    <path class="cls-2" d="M259.48,142.7v-43.15h10.44l.87,7.57h.35c1.57-2.9,3.44-5.06,5.61-6.48,2.17-1.42,4.39-2.13,6.66-2.13,1.22,0,2.23.07,3.04.22.81.15,1.51.36,2.09.65l-2.44,10.88c-.7-.17-1.36-.3-2-.39-.64-.09-1.42-.13-2.35-.13-1.62,0-3.32.58-5.09,1.74-1.77,1.16-3.23,3.22-4.39,6.18v25.06h-12.79Z"/>
    <path class="cls-2" d="M312.55,143.74c-4.12,0-7.83-.9-11.14-2.7-3.31-1.8-5.92-4.38-7.83-7.74-1.91-3.36-2.87-7.42-2.87-12.18s.97-8.73,2.92-12.09c1.94-3.36,4.48-5.96,7.61-7.79,3.13-1.83,6.41-2.74,9.83-2.74,4.12,0,7.54.91,10.27,2.74,2.73,1.83,4.75,4.31,6.09,7.44,1.33,3.13,2,6.64,2,10.53,0,1.1-.06,2.19-.17,3.26-.12,1.07-.23,1.93-.35,2.57h-28.28l-.17-8.87h18.01c0-2.26-.55-4.13-1.65-5.61-1.1-1.48-2.93-2.22-5.48-2.22-1.39,0-2.76.38-4.09,1.13-1.33.75-2.44,2.06-3.31,3.92-.87,1.86-1.28,4.44-1.22,7.74.06,3.25.65,5.8,1.78,7.66,1.13,1.86,2.57,3.18,4.31,3.96,1.74.78,3.57,1.17,5.48,1.17,1.68,0,3.29-.25,4.83-.74,1.54-.49,3.06-1.17,4.57-2.04l4.18,7.83c-2.15,1.51-4.58,2.68-7.31,3.52-2.73.84-5.39,1.26-8,1.26Z"/>
  </g>
</svg>