<?xml version="1.0" encoding="UTF-8"?>
<svg xmlns="http://www.w3.org/2000/svg" xmlns:xlink="http://www.w3.org/1999/xlink" version="1.1" id="Layer_1" x="0px" y="0px" width="714.089px" height="788.903px" viewBox="0 0 714.089 788.903" xml:space="preserve">
<g>
	<path fill="#88DBDF" d="M544.996,412.54c-90.916,0-129.174,63.074-129.975,64.434c-0.021,0.02-0.062,0.082-0.062,0.082V412.52   v-37.125v-73.002v-0.02c0.02,0.02,0.043,0.04,0.043,0.04c9.607,12.44,20.721,23.626,33.07,33.297   c0.039,0.053,0.08,0.083,0.143,0.123c4.053,3.171,8.252,6.185,12.572,9.014c0.393,0.257,0.803,0.514,1.191,0.762   c2.268,1.451,4.531,2.861,6.836,4.217c0.863,0.495,1.729,1.009,2.635,1.503c1.645,0.946,3.354,1.863,5.061,2.756   c1.256,0.669,2.51,1.318,3.785,1.958c1.072,0.514,2.121,1.048,3.191,1.543c1.914,0.904,3.848,1.778,5.822,2.622   c0.906,0.412,1.83,0.784,2.758,1.154c1.873,0.782,3.744,1.533,5.66,2.232c0.885,0.33,1.748,0.639,2.611,0.956   c1.938,0.689,3.871,1.349,5.803,1.965c0.764,0.247,1.523,0.495,2.266,0.731c2.305,0.699,4.609,1.349,6.916,1.945   c0.822,0.235,1.646,0.442,2.469,0.647c2.344,0.586,4.691,1.131,7.059,1.625c0.764,0.165,1.543,0.299,2.346,0.455   c1.936,0.379,3.891,0.719,5.824,1.039c1.029,0.165,2.018,0.339,3.006,0.484c2.076,0.287,4.156,0.554,6.234,0.792   c1.152,0.112,2.283,0.257,3.436,0.35c2.102,0.205,4.24,0.35,6.34,0.494c1.439,0.083,2.879,0.123,4.32,0.175   c1.01,0.05,2.018,0.073,3.047,0.083c1.234,0.03,2.43,0.06,3.662,0.06c51.57,0,98.242-20.897,132.115-54.604l-26.236-26.219   c-20.354,20.221-46.49,34.666-75.65,40.614c-1.457,0.288-2.939,0.524-4.402,0.782c-0.926,0.165-1.871,0.359-2.816,0.504   c-7.492,1.154-15.189,1.771-23.008,1.771c-75.012,0-136.973-55.102-148.105-126.99v-0.896v-44.244v-0.999   c11.135-71.901,73.096-126.98,148.105-126.98c41.508,0,79.084,16.865,106.268,44.1l26.258-26.249   C667.048,27.36,629.263,7.984,587.099,2.572c-7.801-0.999-15.721-1.563-23.789-1.563c-41.98,0-80.75,13.829-111.988,37.164   c-0.041,0.031-0.084,0.061-0.104,0.083c-4.59,3.437-8.992,7.069-13.23,10.896c-0.309,0.29-0.617,0.567-0.947,0.854   c-1.893,1.741-3.766,3.531-5.617,5.361c-0.391,0.382-0.762,0.761-1.133,1.153c-1.854,1.84-3.643,3.713-5.391,5.638   c-0.207,0.237-0.412,0.482-0.619,0.709c-1.707,1.873-3.354,3.788-4.959,5.721c-0.225,0.27-0.473,0.534-0.68,0.804   c-1.232,1.513-2.445,3.066-3.619,4.62V73.94c-0.045,0.02-0.045,0.032-0.062,0.052V0.977V0h-40.107v0.977V76.84v0.02v93.573   c0,0.03,0,0.05,0,0.072v36.576c0,0.022,0,0.052,0,0.085v92.077v0.013v76.139v37.125v76.842v93.59c0,0.043,0,0.061,0,0.084v36.566   c0,0.021,0,0.062,0,0.082v92.09v76.059v1.072h39.141v-1.072V582.6c0-2.57,0.287-6.48,1.027-11.295   c5.227-35.23,32.699-120.674,128.986-120.674c109.479,0,132.939,109.5,132.939,143.701v193.5v1.07h37.143v-1.07V603.161   C714.089,490.719,636.861,412.54,544.996,412.54z"></path>
	<path d="M336.225,0v76.613c-4.137-5.698-8.52-11.307-13.398-16.688C290.478,24.313,250.536,4.692,203.1,0.977   c-5.533-0.442-11.142-0.719-16.885-0.719c-5.741,0-11.359,0.277-16.895,0.719c-47.67,3.725-87.685,23.46-120.066,59.256   C16.535,96.409,0.144,139.071,0.011,188.234c0,0.185-0.011,0.369-0.011,0.534c0,0.175,0.011,0.33,0.011,0.504   c0.132,49.605,17.481,92.983,52.062,130.129c34.696,37.268,79.382,55.9,134.142,55.9c54.515,0,99.119-18.633,133.834-55.9   c5.968-6.422,11.236-13.109,16.166-19.911v75.904v37.124v76.596c-4.127-5.68-8.5-11.277-13.389-16.629   c-36.114-39.801-81.654-59.68-136.601-59.68c-55.179,0-100.814,20.004-136.96,59.967c-32.72,36.156-49.11,78.818-49.244,128.002   c0,0.164-0.01,0.328-0.01,0.533c0,0.166,0.01,0.33,0.01,0.494c0.134,49.594,17.482,93.016,52.065,130.141   c34.693,37.248,79.379,55.891,134.139,55.891c54.515,0,99.109-18.643,133.845-55.891c5.958-6.422,11.227-13.148,16.154-19.941   v76.902h39.656V0H336.225z M187.481,338.971c-82.953,0-150.183-67.229-150.183-150.182c0-82.943,67.229-150.163,150.183-150.163   c76.336,0,139.195,56.982,148.744,130.716v38.913C326.677,281.989,263.817,338.971,187.481,338.971z M187.504,751.491   c-82.966,0-150.195-67.23-150.195-150.184c0-82.951,67.229-150.16,150.195-150.16c76.336,0,139.173,56.961,148.721,130.715v38.914   C326.677,694.508,263.84,751.491,187.504,751.491z"></path>
</g>
</svg>
